<svg width="140" height="95" viewBox="0 0 140 95" fill="none" xmlns="http://www.w3.org/2000/svg">
<path d="M131.381 46.1963C131.201 45.8161 126.803 36.8236 116.979 27.7678C107.864 19.3749 92.204 9.36377 69.2687 9.36377C46.3334 9.36377 30.6731 19.3749 21.5582 27.7678C11.7348 36.8236 7.336 45.8015 7.15624 46.1963C6.97548 46.5706 6.88208 46.9758 6.88208 47.3855C6.88208 47.7952 6.97548 48.2004 7.15624 48.5747C7.336 48.95 11.7348 57.9425 21.5582 66.9983C30.6731 75.3913 46.3334 85.3975 69.2687 85.3975C92.204 85.3975 107.864 75.3913 116.979 66.9983C126.803 57.9425 131.201 48.9647 131.381 48.5747C131.562 48.2004 131.655 47.7952 131.655 47.3855C131.655 46.9758 131.562 46.5706 131.381 46.1963ZM69.2687 79.5487C52.6779 79.5487 38.1913 73.9827 26.2055 63.0114C21.1813 58.408 16.9296 53.1399 13.5906 47.3806C16.9287 41.6223 21.1805 36.3557 26.2055 31.7547C38.1913 20.7786 52.6779 15.2125 69.2687 15.2125C85.8596 15.2125 100.346 20.7786 112.332 31.7547C117.357 36.3557 121.609 41.6223 124.947 47.3806C121.579 53.3317 104.692 79.5487 69.2687 79.5487ZM69.2687 24.9604C64.4586 24.9604 59.7565 26.2753 55.757 28.7389C51.7575 31.2025 48.6403 34.704 46.7995 38.8008C44.9587 42.8975 44.4771 47.4055 45.4155 51.7546C46.3539 56.1037 48.6702 60.0986 52.0715 63.2341C55.4728 66.3696 59.8063 68.5049 64.524 69.37C69.2418 70.2351 74.1318 69.7911 78.5758 68.0942C83.0198 66.3973 86.8181 63.5236 89.4905 59.8366C92.1629 56.1496 93.5892 51.8149 93.5892 47.3806C93.5808 41.4368 91.0158 35.7386 86.4567 31.5357C81.8975 27.3328 75.7164 24.9682 69.2687 24.9604ZM69.2687 63.9521C65.7134 63.9521 62.2379 62.9802 59.2818 61.1593C56.3256 59.3384 54.0216 56.7503 52.661 53.7222C51.3005 50.6942 50.9445 47.3622 51.6381 44.1477C52.3317 40.9332 54.0438 37.9804 56.5578 35.6628C59.0717 33.3453 62.2748 31.767 65.7618 31.1276C69.2488 30.4882 72.8632 30.8163 76.1479 32.0706C79.4325 33.3249 82.24 35.4489 84.2153 38.174C86.1905 40.8992 87.2448 44.1031 87.2448 47.3806C87.2448 51.7757 85.3509 55.9907 81.9797 59.0984C78.6085 62.2062 74.0363 63.9521 69.2687 63.9521Z" fill="black"/>
<ellipse cx="70.2433" cy="47.3804" rx="32.1681" ry="34.1177" fill="black"/>
<ellipse cx="70.2433" cy="47.3806" rx="28.2689" ry="30.2185" fill="url(#paint0_linear_22_187)"/>
<circle cx="70.2431" cy="47.3804" r="18.521" fill="black"/>
<line x1="89.1049" y1="23.3602" x2="79.357" y2="32.8762" stroke="black" stroke-width="0.974791"/>
<line x1="82.6986" y1="35.2336" x2="88.5474" y2="32.323" stroke="black" stroke-width="0.974791"/>
<line x1="58.0438" y1="17.0444" x2="61.9429" y2="32.641" stroke="black" stroke-width="0.974791"/>
<line x1="42.0651" y1="36.1793" x2="57.8607" y2="39.1722" stroke="black" stroke-width="0.974791"/>
<line x1="42.0651" y1="40.0787" x2="57.8607" y2="43.0716" stroke="black" stroke-width="0.974791"/>
<line x1="41.9143" y1="45.9228" x2="57.6253" y2="43.9732" stroke="black" stroke-width="0.974791"/>
<line x1="49.3713" y1="68.9169" x2="58.3496" y2="55.8776" stroke="black" stroke-width="0.974791"/>
<line x1="53.2703" y1="72.8164" x2="62.2487" y2="59.777" stroke="black" stroke-width="0.974791"/>
<line x1="67.7286" y1="79.7859" x2="66.8324" y2="63.9798" stroke="black" stroke-width="0.974791"/>
<line x1="73.5774" y1="79.7859" x2="72.6812" y2="63.9798" stroke="black" stroke-width="0.974791"/>
<line x1="99.4049" y1="37.0995" x2="85.0721" y2="43.8231" stroke="black" stroke-width="0.974791"/>
<line x1="92.8915" y1="67.6921" x2="78.7945" y2="60.4871" stroke="black" stroke-width="0.974791"/>
<line x1="96.7908" y1="63.7931" x2="82.6938" y2="56.5881" stroke="black" stroke-width="0.974791"/>
<path d="M100.985 48.7252L95.7926 53.9865L89.7521 54.0051L88.2847 59.0489" stroke="black" stroke-width="0.974791"/>
<path d="M80.9976 77.8089L77.6636 72.6977L80.1014 62.0028" stroke="black" stroke-width="0.974791"/>
<path d="M87.6438 51.6239L91.7107 46.7939L102.291 48.3823" stroke="black" stroke-width="0.974791"/>
<path d="M85.638 19.1084L79.9153 21.2277L79.9912 27.8853L75.5024 31.2701" stroke="black" stroke-width="0.974791"/>
<path d="M41.9744 56.0176L47.0074 57.5349L55.8282 48.3555" stroke="black" stroke-width="0.974791"/>
<path d="M43.9242 61.8662L48.9572 63.3835L50.7477 57.1286L57.778 54.2041" stroke="black" stroke-width="0.974791"/>
<path d="M43.924 32.7594L52.489 33.1837L60.5325 39.7668" stroke="black" stroke-width="0.974791"/>
<line x1="66.3682" y1="15.3335" x2="61.9423" y2="32.6271" stroke="black" stroke-width="0.974791"/>
<line x1="69.7561" y1="15.2099" x2="69.845" y2="30.9277" stroke="black" stroke-width="0.974791"/>
<path d="M53.6719 26.4239L57.1769 26.7437L58.151 33.8667" stroke="black" stroke-width="0.974791"/>
<line x1="48.0231" y1="28.4159" x2="53.3658" y2="30.8203" stroke="black" stroke-width="0.974791"/>
<line x1="75.6046" y1="15.2099" x2="75.6935" y2="30.9277" stroke="black" stroke-width="0.974791"/>
<path d="M96.5628 28.8595L91.1593 37.4156L84.5163 37.6364" stroke="black" stroke-width="0.974791"/>
<circle cx="64.5898" cy="22.2318" r="1.16975" fill="black"/>
<circle cx="52.8922" cy="26.1302" r="1.16975" fill="black"/>
<path d="M47.0432 48.3557C47.6892 48.3558 48.2131 48.8796 48.2131 49.5256C48.213 50.1715 47.6891 50.6955 47.0432 50.6956C46.888 50.6956 46.7403 50.6635 46.6047 50.6086L40.0247 52.2542L39.7883 51.3088L45.9016 49.7805C45.8833 49.6984 45.8733 49.6132 45.8733 49.5256C45.8733 48.8796 46.3972 48.3557 47.0432 48.3557Z" fill="black"/>
<path d="M81.3651 69.0015C81.8109 68.3657 82.7016 68.2214 83.355 68.679C84.0083 69.137 84.177 70.0241 83.7313 70.6601C83.5044 70.9838 83.1621 71.1799 82.7946 71.2343L80.4889 77.2458L79.5792 76.8968L81.826 71.0372C81.7974 71.0198 81.7685 71.0016 81.7406 70.9821C81.0875 70.524 80.9193 69.6374 81.3651 69.0015Z" fill="black"/>
<path d="M96.2349 40.6558C97.0097 40.601 97.6834 41.2022 97.7397 41.9982C97.7958 42.794 97.2136 43.4834 96.439 43.5383C96.1168 43.561 95.8135 43.4686 95.5634 43.2977L88.7649 46.4057L88.3595 45.5191L94.9844 42.4909C94.9582 42.3967 94.9414 42.2983 94.9342 42.1968C94.8779 41.4009 95.4602 40.7107 96.2349 40.6558Z" fill="black"/>
<path fill-rule="evenodd" clip-rule="evenodd" d="M90.5352 32.8976C90.3006 33.6378 89.4935 34.0429 88.7329 33.8021C87.9724 33.5612 87.5462 32.7658 87.7803 32.0255C87.8995 31.6487 88.1673 31.3589 88.5015 31.1967L88.8966 24.7712L89.8694 24.8303L89.4846 31.0941C89.5169 31.102 89.5497 31.1096 89.5819 31.1198C90.3427 31.3606 90.7696 32.1571 90.5352 32.8976Z" fill="black"/>
<path d="M93.4153 60.0452C93 59.7947 92.9977 59.0375 93.4096 58.3541C93.8215 57.6709 94.4917 57.3202 94.9071 57.5704C95.1187 57.698 95.2234 57.9567 95.2207 58.2703L99.3673 58.9466L98.999 59.8489L94.9549 59.1899C94.9416 59.2136 94.9284 59.2376 94.9142 59.2611C94.5022 59.9445 93.8308 60.2956 93.4153 60.0452Z" fill="black"/>
<path d="M63.7218 72.4492C63.3534 73.133 62.4845 73.3811 61.7819 73.0026C61.0795 72.6241 60.8095 71.7625 61.1778 71.0787C61.3652 70.7311 61.6815 70.4964 62.0397 70.3993L63.6275 64.1599L64.5718 64.4002L63.0255 70.4823C63.0558 70.4961 63.0866 70.5097 63.1164 70.5257C63.8187 70.9041 64.0899 71.7655 63.7218 72.4492Z" fill="black"/>
<circle cx="79.0166" cy="37.6573" r="5.84875" fill="#EAE8E9"/>
<defs>
<linearGradient id="paint0_linear_22_187" x1="90.7139" y1="26.91" x2="46.8483" y2="63.9521" gradientUnits="userSpaceOnUse">
<stop stop-color="#C37CAB"/>
<stop offset="0.429951" stop-color="#4EAFC9"/>
<stop offset="1" stop-color="#427AB7"/>
</linearGradient>
</defs>
</svg>
