<svg width="296" height="247" viewBox="0 0 296 247" fill="none" xmlns="http://www.w3.org/2000/svg">
<g filter="url(#filter0_d_146_13)">
<path fill-rule="evenodd" clip-rule="evenodd" d="M45.82 83.2629C49.2225 74.0213 55.3219 66.0558 63.3022 60.4322C71.2825 54.8086 80.763 51.7952 90.4751 51.7952C100.187 51.7952 109.668 54.8086 117.648 60.4322C125.628 66.0558 131.728 74.0213 135.13 83.2629H45.82ZM42.8748 97.7881C42.2829 109.774 46.0937 121.556 53.5679 130.849C61.0422 140.143 71.6473 146.285 83.3264 148.084V120.961L63.3675 97.7881H42.8748ZM97.6237 148.084C109.303 146.285 119.908 140.143 127.382 130.849C134.856 121.556 138.667 109.774 138.075 97.7881H117.583L97.6237 120.961V148.084ZM90.4751 32.4248C72.7797 32.4248 55.8091 39.5663 43.2966 52.2783C30.7841 64.9903 23.7546 82.2315 23.7546 100.209C23.7546 118.186 30.7841 135.428 43.2966 148.14C55.8091 160.852 72.7797 167.993 90.4751 167.993C108.17 167.993 125.141 160.852 137.654 148.14C150.166 135.428 157.195 118.186 157.195 100.209C157.195 82.2315 150.166 64.9903 137.654 52.2783C125.141 39.5663 108.17 32.4248 90.4751 32.4248Z" fill="url(#paint0_linear_146_13)"/>
</g>
<path d="M131.727 159.232C127.006 159.076 122.276 159.315 117.607 159.98C113.596 160.552 109.636 161.456 105.78 162.671C104.844 162.962 103.795 163.201 102.911 163.648C102.345 163.939 101.882 164.272 101.378 163.638C100.679 162.786 101.142 161.237 101.255 160.261C101.481 158.297 101.738 156.343 102.036 154.389C103.332 145.692 105.07 137.077 106.253 128.359C106.767 124.503 107.189 120.617 107.682 116.762C107.929 114.777 108.207 112.792 108.526 110.818C108.917 108.396 108.999 106.692 111.241 105.227C115.056 102.733 119.633 101.632 124.003 100.561C128.713 99.4077 133.413 98.4309 138.288 98.618C141.702 98.7531 145.024 99.6675 148.037 101.278C149.498 102.058 150.896 102.972 152.223 103.98C153.539 104.967 155.144 106.027 156.192 107.295C157.128 108.417 157.427 109.436 157.519 110.599C156.871 125.491 156.974 162.412 157.087 165.03C157.097 165.249 157.118 165.467 157.128 165.685C157.077 165.966 156.923 166.184 156.47 166.184C155.925 166.194 155.329 165.83 154.856 165.581C153.879 165.062 152.891 164.563 151.904 164.095C145.518 161.05 138.792 159.46 131.727 159.232ZM218.925 163.627C218.411 164.261 217.959 163.929 217.393 163.638C216.519 163.191 215.47 162.952 214.524 162.661C210.667 161.445 206.708 160.552 202.697 159.97C198.028 159.305 193.287 159.076 188.567 159.221C181.512 159.45 174.786 161.04 168.389 164.085C167.402 164.563 166.415 165.062 165.438 165.571C164.965 165.82 164.368 166.173 163.813 166.173C163.36 166.173 163.206 165.955 163.155 165.675C163.165 165.456 163.196 165.238 163.196 165.02C163.309 162.401 163.422 125.48 162.764 110.589C162.857 109.425 163.155 108.407 164.08 107.285C165.15 106.017 166.744 104.946 168.06 103.97C169.387 102.972 170.775 102.047 172.246 101.268C175.269 99.6571 178.581 98.7427 181.995 98.6076C186.87 98.4101 191.57 99.3973 196.28 100.551C200.651 101.621 205.227 102.712 209.053 105.217C211.295 106.682 211.377 108.386 211.768 110.807C212.087 112.782 212.364 114.766 212.611 116.751C213.094 120.617 213.516 124.493 214.04 128.348C215.223 137.056 216.971 145.681 218.257 154.379C218.535 156.333 218.812 158.286 219.039 160.25C219.162 161.227 219.625 162.775 218.925 163.627Z" fill="white"/>
<g filter="url(#filter1_d_146_13)">
<path d="M223.008 170.276C223.078 168.866 223.722 164.93 223.702 164.165C223.632 154.359 217.41 122.042 216.413 114.169L216.353 113.685C216.011 110.595 215.88 106.92 214.742 104C213.594 101.061 209.879 100.034 207.201 98.9968C196.117 94.7684 183.603 91.2044 171.844 94.9295C167.253 96.3792 163.115 98.9666 159.793 103.044C156.481 98.9666 152.333 96.3792 147.752 94.9295C135.993 91.2044 123.479 94.7684 112.394 98.9968C109.716 100.024 105.981 101.051 104.844 104C103.706 106.92 103.575 110.585 103.233 113.685L103.172 114.169C102.176 122.042 95.9641 154.359 95.8835 164.165C95.8634 164.94 96.5178 168.866 96.5882 170.276C96.6889 172.309 96.4473 174.353 96.548 176.377C96.3466 177.081 96.5278 177.746 96.9607 178.269C97.2426 178.813 97.6756 179.145 98.1487 179.316C99.226 180.504 101.179 179.719 102.458 179.316C113.915 175.612 126.509 175.752 138.329 177.323C140.423 177.595 142.507 177.937 144.581 178.34C146.735 178.763 148.779 179.528 150.843 180.263C152.544 180.867 154.326 181.37 156.118 181.713C157.407 182.004 158.665 182.125 159.239 182.135C159.441 182.135 159.622 182.115 159.813 182.105C160.004 182.105 160.196 182.135 160.387 182.135C160.961 182.135 162.219 182.015 163.508 181.713C165.3 181.37 167.082 180.867 168.783 180.263C170.847 179.528 172.901 178.763 175.055 178.34C177.129 177.937 179.213 177.595 181.307 177.323C193.117 175.752 205.721 175.612 217.178 179.316C218.447 179.729 220.4 180.504 221.477 179.316C221.961 179.145 222.383 178.813 222.665 178.269C223.098 177.746 223.279 177.081 223.078 176.377C223.149 174.343 222.907 172.309 223.008 170.276ZM131.956 157.117C127.335 156.966 122.704 157.198 118.133 157.842C114.207 158.396 110.331 159.272 106.555 160.45C105.639 160.732 104.612 160.963 103.746 161.396C103.193 161.678 102.74 162 102.246 161.386C101.562 160.56 102.015 159.06 102.125 158.114C102.347 156.211 102.599 154.318 102.891 152.426C104.159 143.999 105.861 135.653 107.018 127.206C107.522 123.471 107.934 119.706 108.418 115.971C108.659 114.048 108.931 112.125 109.243 110.212C109.626 107.866 109.706 106.215 111.901 104.796C115.636 102.38 120.116 101.312 124.395 100.275C129.006 99.1579 133.607 98.2115 138.379 98.3927C141.721 98.5236 144.973 99.4096 147.923 100.97C149.353 101.725 150.722 102.611 152.021 103.588C153.309 104.544 154.88 105.571 155.907 106.799C156.823 107.887 157.115 108.873 157.206 110.001C156.571 124.428 156.672 160.198 156.783 162.735C156.793 162.946 156.813 163.158 156.823 163.369C156.773 163.641 156.622 163.853 156.179 163.853C155.645 163.863 155.061 163.51 154.598 163.269C153.642 162.765 152.675 162.282 151.709 161.829C145.457 158.879 138.872 157.339 131.956 157.117ZM217.319 161.376C216.816 161.99 216.373 161.668 215.819 161.386C214.964 160.953 213.937 160.721 213.01 160.44C209.235 159.262 205.359 158.396 201.433 157.832C196.862 157.188 192.221 156.966 187.6 157.107C180.693 157.329 174.109 158.869 167.847 161.819C166.881 162.282 165.914 162.765 164.958 163.259C164.494 163.5 163.911 163.842 163.367 163.842C162.924 163.842 162.773 163.631 162.723 163.359C162.733 163.148 162.763 162.936 162.763 162.725C162.874 160.188 162.984 124.418 162.34 109.991C162.431 108.863 162.723 107.876 163.629 106.789C164.676 105.561 166.236 104.524 167.525 103.578C168.824 102.611 170.183 101.715 171.622 100.96C174.582 99.3995 177.824 98.5135 181.166 98.3827C185.939 98.1914 190.539 99.1478 195.15 100.265C199.429 101.302 203.909 102.359 207.654 104.786C209.849 106.205 209.93 107.856 210.312 110.202C210.624 112.115 210.896 114.038 211.138 115.961C211.611 119.706 212.024 123.461 212.537 127.196C213.695 135.633 215.407 143.989 216.665 152.416C216.937 154.308 217.209 156.201 217.43 158.104C217.551 159.05 218.004 160.55 217.319 161.376Z" fill="url(#paint1_linear_146_13)"/>
</g>
<path d="M148.779 109.658C139.245 105.188 126.398 104.946 116.804 109.537C114.267 110.756 116.482 114.43 118.999 113.293C127.163 109.568 138.359 110.131 146.282 113.927C149.141 115.286 151.648 111.007 148.779 109.658ZM148.477 121.437C138.328 116.987 125.281 115.306 115.042 120.582C112.817 121.729 114.77 124.87 116.975 123.884C126.368 119.686 137.624 122.152 146.755 125.535C149.121 126.421 150.802 122.454 148.477 121.437ZM147.943 133.186C146.866 132.28 145.366 131.857 144.067 131.384C134.644 127.941 122.13 127.8 113.079 132.431C111.085 133.448 112.767 136.347 114.73 135.784C119.663 134.384 124.304 133.609 129.429 133.559C133.446 133.518 137.09 133.941 140.926 135.089C142.084 135.431 143.191 135.562 144.299 136.086C145.094 136.458 146.081 136.931 146.956 137.042C148.869 137.274 149.262 134.465 148.185 133.398L147.943 133.186ZM146.946 144.532C136.053 139.398 123.831 140.344 112.807 144.23C110.532 145.036 111.619 148.539 113.935 147.814C119.119 146.184 123.438 144.965 128.945 144.895C134.241 144.834 139.99 146.566 144.842 148.469C147.45 149.506 149.594 145.781 146.946 144.532ZM173.283 113.917C181.207 110.121 192.402 109.568 200.567 113.282C203.073 114.43 205.298 110.745 202.761 109.527C193.177 104.936 180.331 105.178 170.797 109.648C167.917 111.007 170.414 115.286 173.283 113.917ZM172.82 125.535C181.952 122.152 193.207 119.686 202.6 123.884C204.805 124.87 206.758 121.729 204.533 120.582C194.284 115.306 181.237 116.987 171.099 121.437C168.773 122.454 170.444 126.421 172.82 125.535ZM172.609 137.052C173.495 136.941 174.461 136.468 175.257 136.096C176.374 135.572 177.482 135.441 178.639 135.099C182.475 133.961 186.12 133.539 190.137 133.569C195.261 133.609 199.912 134.384 204.845 135.794C206.798 136.358 208.48 133.448 206.496 132.441C197.446 127.81 184.922 127.951 175.508 131.394C174.21 131.867 172.709 132.28 171.622 133.196L171.381 133.418C170.293 134.465 170.706 137.284 172.609 137.052ZM206.768 144.23C195.744 140.344 183.522 139.398 172.629 144.532C169.981 145.781 172.126 149.506 174.743 148.469C179.586 146.566 185.324 144.834 190.63 144.895C196.127 144.965 200.456 146.184 205.631 147.814C207.956 148.549 209.044 145.036 206.768 144.23Z" fill="#2F2F2F"/>
<g filter="url(#filter2_d_146_13)">
<path d="M185.161 104.48L207.481 81.1957V50.1503L229.801 26.8663L207.481 3.58228L185.161 26.8663H155.402L133.082 50.1503L185.161 104.48Z" fill="url(#paint2_linear_146_13)"/>
</g>
<path d="M170.282 88.9571H147.962V65.6731L170.282 88.9571ZM207.481 158.809H267V182.093H185.161L207.481 158.809Z" fill="white"/>
<path d="M159.122 77.3151L185.161 104.48L207.481 81.1957V50.1504L229.801 26.8664L218.641 15.2244L159.122 77.3151Z" fill="#BBD8FF"/>
<path d="M185.161 104.48L207.481 81.1957V50.1503L229.801 26.8663L207.481 3.58228L185.161 26.8663H155.402L133.082 50.1503L185.161 104.48Z" stroke="#092F63" stroke-width="7.16431" stroke-linecap="round" stroke-linejoin="round"/>
<g filter="url(#filter3_d_146_13)">
<path d="M170.282 88.957H147.962V65.673M95.8831 65.673H118.203H95.8831ZM162.842 120.002V143.286V120.002ZM133.082 104.48L118.203 120.002L133.082 104.48ZM218.641 38.5083L244.68 65.673V158.809M207.481 158.809H267V182.093H185.161L207.481 158.809Z" fill="url(#paint3_linear_146_13)"/>
</g>
<g filter="url(#filter4_f_146_13)">
<path d="M147.53 89.0395L148.194 65.8186L170.76 88.9608L147.53 89.0395Z" fill="#FFF94D"/>
</g>
<g filter="url(#filter5_f_146_13)">
<path d="M147.53 89.0395L148.194 65.8186L170.76 88.9608L147.53 89.0395Z" fill="#FFF94D"/>
</g>
<g filter="url(#filter6_f_146_13)">
<path d="M147.53 89.0395L148.194 65.8186L170.76 88.9608L147.53 89.0395Z" fill="#FFF94D"/>
</g>
<g filter="url(#filter7_f_146_13)">
<path d="M147.53 89.0395L148.194 65.8186L170.76 88.9608L147.53 89.0395Z" fill="#FFF94D"/>
</g>
<g filter="url(#filter8_f_146_13)">
<path d="M147.53 89.0395L148.194 65.8186L170.76 88.9608L147.53 89.0395Z" fill="#FFF94D"/>
</g>
<g filter="url(#filter9_f_146_13)">
<path d="M147.53 89.0395L148.194 65.8186L170.76 88.9608L147.53 89.0395Z" fill="#FFF94D"/>
</g>
<g filter="url(#filter10_f_146_13)">
<path d="M147.53 89.0395L148.194 65.8186L170.76 88.9608L147.53 89.0395Z" fill="#FFF94D"/>
</g>
<g filter="url(#filter11_f_146_13)">
<rect x="105" y="99.5823" width="71" height="59" fill="#FEFBAD"/>
</g>
<defs>
<filter id="filter0_d_146_13" x="15.7815" y="32.4248" width="149.387" height="151.515" filterUnits="userSpaceOnUse" color-interpolation-filters="sRGB">
<feFlood flood-opacity="0" result="BackgroundImageFix"/>
<feColorMatrix in="SourceAlpha" type="matrix" values="0 0 0 0 0 0 0 0 0 0 0 0 0 0 0 0 0 0 127 0" result="hardAlpha"/>
<feOffset dy="7.97319"/>
<feGaussianBlur stdDeviation="3.98659"/>
<feComposite in2="hardAlpha" operator="out"/>
<feColorMatrix type="matrix" values="0 0 0 0 0 0 0 0 0 0 0 0 0 0 0 0 0 0 0.25 0"/>
<feBlend mode="normal" in2="BackgroundImageFix" result="effect1_dropShadow_146_13"/>
<feBlend mode="normal" in="SourceGraphic" in2="effect1_dropShadow_146_13" result="shape"/>
</filter>
<filter id="filter1_d_146_13" x="63.6666" y="93.3657" width="192.252" height="153.202" filterUnits="userSpaceOnUse" color-interpolation-filters="sRGB">
<feFlood flood-opacity="0" result="BackgroundImageFix"/>
<feColorMatrix in="SourceAlpha" type="matrix" values="0 0 0 0 0 0 0 0 0 0 0 0 0 0 0 0 0 0 127 0" result="hardAlpha"/>
<feOffset dy="32.2164"/>
<feGaussianBlur stdDeviation="16.1082"/>
<feComposite in2="hardAlpha" operator="out"/>
<feColorMatrix type="matrix" values="0 0 0 0 0 0 0 0 0 0 0 0 0 0 0 0 0 0 0.25 0"/>
<feBlend mode="normal" in2="BackgroundImageFix" result="effect1_dropShadow_146_13"/>
<feBlend mode="normal" in="SourceGraphic" in2="effect1_dropShadow_146_13" result="shape"/>
</filter>
<filter id="filter2_d_146_13" x="104.425" y="3.58228" width="154.033" height="158.212" filterUnits="userSpaceOnUse" color-interpolation-filters="sRGB">
<feFlood flood-opacity="0" result="BackgroundImageFix"/>
<feColorMatrix in="SourceAlpha" type="matrix" values="0 0 0 0 0 0 0 0 0 0 0 0 0 0 0 0 0 0 127 0" result="hardAlpha"/>
<feOffset dy="28.6573"/>
<feGaussianBlur stdDeviation="14.3286"/>
<feComposite in2="hardAlpha" operator="out"/>
<feColorMatrix type="matrix" values="0 0 0 0 0 0 0 0 0 0 0 0 0 0 0 0 0 0 0.25 0"/>
<feBlend mode="normal" in2="BackgroundImageFix" result="effect1_dropShadow_146_13"/>
<feBlend mode="normal" in="SourceGraphic" in2="effect1_dropShadow_146_13" result="shape"/>
</filter>
<filter id="filter3_d_146_13" x="67.2258" y="38.5083" width="228.431" height="200.899" filterUnits="userSpaceOnUse" color-interpolation-filters="sRGB">
<feFlood flood-opacity="0" result="BackgroundImageFix"/>
<feColorMatrix in="SourceAlpha" type="matrix" values="0 0 0 0 0 0 0 0 0 0 0 0 0 0 0 0 0 0 127 0" result="hardAlpha"/>
<feOffset dy="28.6573"/>
<feGaussianBlur stdDeviation="14.3286"/>
<feComposite in2="hardAlpha" operator="out"/>
<feColorMatrix type="matrix" values="0 0 0 0 0 0 0 0 0 0 0 0 0 0 0 0 0 0 0.25 0"/>
<feBlend mode="normal" in2="BackgroundImageFix" result="effect1_dropShadow_146_13"/>
<feBlend mode="normal" in="SourceGraphic" in2="effect1_dropShadow_146_13" result="shape"/>
</filter>
<filter id="filter4_f_146_13" x="144.572" y="62.861" width="29.1454" height="29.1361" filterUnits="userSpaceOnUse" color-interpolation-filters="sRGB">
<feFlood flood-opacity="0" result="BackgroundImageFix"/>
<feBlend mode="normal" in="SourceGraphic" in2="BackgroundImageFix" result="shape"/>
<feGaussianBlur stdDeviation="1.47879" result="effect1_foregroundBlur_146_13"/>
</filter>
<filter id="filter5_f_146_13" x="144.572" y="62.861" width="29.1454" height="29.1361" filterUnits="userSpaceOnUse" color-interpolation-filters="sRGB">
<feFlood flood-opacity="0" result="BackgroundImageFix"/>
<feBlend mode="normal" in="SourceGraphic" in2="BackgroundImageFix" result="shape"/>
<feGaussianBlur stdDeviation="1.47879" result="effect1_foregroundBlur_146_13"/>
</filter>
<filter id="filter6_f_146_13" x="144.572" y="62.861" width="29.1454" height="29.1361" filterUnits="userSpaceOnUse" color-interpolation-filters="sRGB">
<feFlood flood-opacity="0" result="BackgroundImageFix"/>
<feBlend mode="normal" in="SourceGraphic" in2="BackgroundImageFix" result="shape"/>
<feGaussianBlur stdDeviation="1.47879" result="effect1_foregroundBlur_146_13"/>
</filter>
<filter id="filter7_f_146_13" x="144.572" y="62.861" width="29.1454" height="29.1361" filterUnits="userSpaceOnUse" color-interpolation-filters="sRGB">
<feFlood flood-opacity="0" result="BackgroundImageFix"/>
<feBlend mode="normal" in="SourceGraphic" in2="BackgroundImageFix" result="shape"/>
<feGaussianBlur stdDeviation="1.47879" result="effect1_foregroundBlur_146_13"/>
</filter>
<filter id="filter8_f_146_13" x="144.572" y="62.861" width="29.1454" height="29.1361" filterUnits="userSpaceOnUse" color-interpolation-filters="sRGB">
<feFlood flood-opacity="0" result="BackgroundImageFix"/>
<feBlend mode="normal" in="SourceGraphic" in2="BackgroundImageFix" result="shape"/>
<feGaussianBlur stdDeviation="1.47879" result="effect1_foregroundBlur_146_13"/>
</filter>
<filter id="filter9_f_146_13" x="144.572" y="62.861" width="29.1454" height="29.1361" filterUnits="userSpaceOnUse" color-interpolation-filters="sRGB">
<feFlood flood-opacity="0" result="BackgroundImageFix"/>
<feBlend mode="normal" in="SourceGraphic" in2="BackgroundImageFix" result="shape"/>
<feGaussianBlur stdDeviation="1.47879" result="effect1_foregroundBlur_146_13"/>
</filter>
<filter id="filter10_f_146_13" x="144.572" y="62.861" width="29.1454" height="29.1361" filterUnits="userSpaceOnUse" color-interpolation-filters="sRGB">
<feFlood flood-opacity="0" result="BackgroundImageFix"/>
<feBlend mode="normal" in="SourceGraphic" in2="BackgroundImageFix" result="shape"/>
<feGaussianBlur stdDeviation="1.47879" result="effect1_foregroundBlur_146_13"/>
</filter>
<filter id="filter11_f_146_13" x="36.3" y="30.8823" width="208.4" height="196.4" filterUnits="userSpaceOnUse" color-interpolation-filters="sRGB">
<feFlood flood-opacity="0" result="BackgroundImageFix"/>
<feBlend mode="normal" in="SourceGraphic" in2="BackgroundImageFix" result="shape"/>
<feGaussianBlur stdDeviation="34.35" result="effect1_foregroundBlur_146_13"/>
</filter>
<linearGradient id="paint0_linear_146_13" x1="90.4751" y1="32.4248" x2="90.4751" y2="167.993" gradientUnits="userSpaceOnUse">
<stop stop-color="#8A6C95"/>
<stop offset="1" stop-color="#2A4682"/>
</linearGradient>
<linearGradient id="paint1_linear_146_13" x1="159.793" y1="93.3657" x2="159.793" y2="182.135" gradientUnits="userSpaceOnUse">
<stop stop-color="#8A6C95"/>
<stop offset="1" stop-color="#2A4682"/>
</linearGradient>
<linearGradient id="paint2_linear_146_13" x1="181.441" y1="3.58228" x2="181.441" y2="104.48" gradientUnits="userSpaceOnUse">
<stop stop-color="#8A6C95"/>
<stop offset="1" stop-color="#2A4682"/>
</linearGradient>
<linearGradient id="paint3_linear_146_13" x1="181.441" y1="38.5083" x2="181.441" y2="182.093" gradientUnits="userSpaceOnUse">
<stop stop-color="#8A6C95"/>
<stop offset="1" stop-color="#2A4682"/>
</linearGradient>
</defs>
</svg>
