<svg width="96" height="82" viewBox="0 0 96 82" fill="none" xmlns="http://www.w3.org/2000/svg">
<g filter="url(#filter0_d_104_12)">
<path fill-rule="evenodd" clip-rule="evenodd" d="M64.8832 0C67.4177 8.61207e-05 69.9022 0.705845 72.0582 2.03822C74.2143 3.37059 75.9568 5.27695 77.0906 7.54374L83.3968 20.1515C84.5069 19.6965 85.5989 19.2051 86.6727 18.6774C87.7527 18.138 89.0027 18.0497 90.1478 18.4319C91.2929 18.8142 92.2393 19.6357 92.7787 20.7157C93.3181 21.7957 93.4063 23.0458 93.0241 24.1909C92.6418 25.336 91.8203 26.2823 90.7403 26.8217C89.6466 27.3084 88.547 27.7816 87.4416 28.2413L91.8141 36.9907C92.7631 38.8878 93.257 40.98 93.2564 43.1012V54.5989C93.2564 56.5193 92.8511 58.4181 92.0671 60.1712C91.283 61.9242 90.1379 63.4922 88.7065 64.7724V70.5235C88.7065 72.3336 87.9874 74.0695 86.7075 75.3494C85.4276 76.6293 83.6917 77.3484 81.8816 77.3484C80.0716 77.3484 78.3357 76.6293 77.0557 75.3494C75.7758 74.0695 75.0568 72.3336 75.0568 70.5235V68.2486H20.4579V70.5235C20.4579 72.3336 19.7389 74.0695 18.459 75.3494C17.1791 76.6293 15.4431 77.3484 13.6331 77.3484C11.823 77.3484 10.0871 76.6293 8.80716 75.3494C7.52725 74.0695 6.80821 72.3336 6.80821 70.5235V64.7724C4.01456 62.27 2.2583 58.6392 2.2583 54.5989V43.0967C2.25915 40.9785 2.75295 38.8896 3.70062 36.9953L8.03668 28.3141C6.93864 27.853 5.85424 27.3571 4.7835 26.8262C3.70895 26.2798 2.89215 25.3331 2.50915 24.19C2.12615 23.047 2.20764 21.7992 2.73604 20.7157C3.00293 20.1808 3.37263 19.7037 3.824 19.3117C4.27537 18.9197 4.79956 18.6205 5.36662 18.4312C5.93368 18.2419 6.53248 18.1662 7.12881 18.2084C7.72514 18.2507 8.3073 18.41 8.84201 18.6774C9.91882 19.2082 11.0108 19.6996 12.1179 20.1515L18.4241 7.54829C19.5573 5.28064 21.2995 3.37336 23.4556 2.04015C25.6117 0.706947 28.0965 0.000508607 30.6315 0H64.8832ZM27.2828 40.9491C25.4727 40.9491 23.7368 41.6682 22.4569 42.9481C21.177 44.228 20.4579 45.9639 20.4579 47.774C20.4579 49.5841 21.177 51.32 22.4569 52.5999C23.7368 53.8798 25.4727 54.5989 27.2828 54.5989C29.0928 54.5989 30.8288 53.8798 32.1087 52.5999C33.3886 51.32 34.1076 49.5841 34.1076 47.774C34.1076 45.9639 33.3886 44.228 32.1087 42.9481C30.8288 41.6682 29.0928 40.9491 27.2828 40.9491ZM68.2319 40.9491C66.4219 40.9491 64.6859 41.6682 63.406 42.9481C62.1261 44.228 61.4071 45.9639 61.4071 47.774C61.4071 49.5841 62.1261 51.32 63.406 52.5999C64.6859 53.8798 66.4219 54.5989 68.2319 54.5989C70.042 54.5989 71.7779 53.8798 73.0578 52.5999C74.3377 51.32 75.0568 49.5841 75.0568 47.774C75.0568 45.9639 74.3377 44.228 73.0578 42.9481C71.7779 41.6682 70.042 40.9491 68.2319 40.9491ZM64.8832 9.09981H30.6315C29.8826 9.0997 29.1453 9.28444 28.4849 9.63763C27.8246 9.99083 27.2616 10.5016 26.846 11.1245L26.5639 11.6159L20.7855 23.1636C27.8288 25.2747 37.3199 27.2994 47.7574 27.2994C57.5032 27.2994 66.4165 25.5341 73.2823 23.5822L74.7246 23.1636L68.9508 11.6159C68.616 10.9462 68.121 10.3695 67.5099 9.93698C66.8987 9.50442 66.1903 9.22936 65.4474 9.13621L64.8877 9.09981H64.8832Z" fill="url(#paint0_linear_104_12)"/>
</g>
<path d="M26.7491 7.22566C27.0187 6.60897 27.6279 6.21045 28.301 6.21045H66.5537C67.209 6.21045 67.8055 6.58843 68.0853 7.18097L74.9181 21.6506C75.3226 22.5072 74.9459 23.529 74.0823 23.9181L67.8533 26.7247C67.7032 26.7923 67.5441 26.8377 67.3809 26.8594L48.8102 29.3304C48.6701 29.3491 48.5282 29.3501 48.3879 29.3335L27.4775 26.8603C27.2892 26.8381 27.1059 26.7843 26.9353 26.7013L21.2225 23.9214C20.4055 23.5238 20.0477 22.5523 20.4117 21.7198L26.7491 7.22566Z" fill="#72CCDA"/>
<circle cx="27.0999" cy="47.9898" r="7.33963" fill="#72CCDA"/>
<circle cx="68.3147" cy="47.9898" r="7.33963" fill="#72CCDA"/>
<defs>
<filter id="filter0_d_104_12" x="-4.62532e-05" y="0" width="95.5167" height="81.8651" filterUnits="userSpaceOnUse" color-interpolation-filters="sRGB">
<feFlood flood-opacity="0" result="BackgroundImageFix"/>
<feColorMatrix in="SourceAlpha" type="matrix" values="0 0 0 0 0 0 0 0 0 0 0 0 0 0 0 0 0 0 127 0" result="hardAlpha"/>
<feOffset dy="2.25835"/>
<feGaussianBlur stdDeviation="1.12917"/>
<feComposite in2="hardAlpha" operator="out"/>
<feColorMatrix type="matrix" values="0 0 0 0 0 0 0 0 0 0 0 0 0 0 0 0 0 0 0.25 0"/>
<feBlend mode="normal" in2="BackgroundImageFix" result="effect1_dropShadow_104_12"/>
<feBlend mode="normal" in="SourceGraphic" in2="effect1_dropShadow_104_12" result="shape"/>
</filter>
<linearGradient id="paint0_linear_104_12" x1="47.7583" y1="0" x2="47.7583" y2="77.3484" gradientUnits="userSpaceOnUse">
<stop stop-color="#8A6C95"/>
<stop offset="1" stop-color="#2A4682"/>
</linearGradient>
</defs>
</svg>
