<svg width="151" height="160" viewBox="0 0 151 160" fill="none" xmlns="http://www.w3.org/2000/svg">
<path d="M44.0729 102.642C41.0108 102.541 37.9421 102.696 34.9135 103.128C32.3118 103.498 29.7434 104.085 27.2417 104.873C26.6347 105.062 25.9542 105.217 25.3805 105.507C25.0136 105.696 24.7134 105.911 24.3865 105.5C23.9329 104.948 24.2331 103.943 24.3065 103.31C24.4532 102.036 24.62 100.768 24.8135 99.501C25.654 93.8589 26.7814 88.2708 27.5486 82.6153C27.8822 80.1145 28.1557 77.5934 28.4759 75.0926C28.636 73.8051 28.8161 72.5176 29.0229 71.2369C29.2764 69.6663 29.3298 68.5608 30.7841 67.6103C33.259 65.9926 36.2277 65.278 39.0629 64.5837C42.1182 63.8355 45.1669 63.2019 48.329 63.3232C50.5438 63.4108 52.6986 64.004 54.6532 65.0488C55.6005 65.5544 56.5077 66.1476 57.3683 66.8014C58.2222 67.4418 59.2629 68.1294 59.9434 68.9518C60.5504 69.6798 60.7439 70.3404 60.8039 71.0953C60.3836 80.7549 60.4504 104.705 60.5237 106.404C60.5304 106.545 60.5438 106.687 60.5504 106.828C60.5171 107.01 60.417 107.152 60.1235 107.152C59.7699 107.159 59.383 106.923 59.0761 106.761C58.4424 106.424 57.8019 106.1 57.1615 105.797C53.0188 103.822 48.6559 102.79 44.0729 102.642ZM100.637 105.494C100.303 105.905 100.01 105.689 99.6429 105.5C99.0759 105.21 98.3954 105.055 97.7817 104.867C95.28 104.078 92.7117 103.498 90.11 103.121C87.0813 102.689 84.0059 102.541 80.9439 102.635C76.3675 102.784 72.0047 103.815 67.8553 105.79C67.2148 106.1 66.5744 106.424 65.9407 106.754C65.6338 106.916 65.2469 107.145 64.8866 107.145C64.5931 107.145 64.493 107.003 64.4597 106.821C64.4663 106.68 64.4864 106.538 64.4864 106.397C64.5597 104.698 64.6331 80.7481 64.2062 71.0886C64.2662 70.3336 64.4597 69.673 65.0601 68.945C65.7539 68.1226 66.7879 67.4283 67.6418 66.7947C68.5023 66.1476 69.4029 65.5477 70.3569 65.0421C72.3182 63.9973 74.4663 63.4041 76.6811 63.3165C79.8432 63.1884 82.8919 63.8288 85.9472 64.577C88.7824 65.2713 91.751 65.9791 94.2327 67.6036C95.687 68.554 95.7403 69.6595 95.9939 71.2301C96.2007 72.5109 96.3808 73.7984 96.5409 75.0859C96.8544 77.5934 97.1279 80.1077 97.4682 82.6086C98.2353 88.2574 99.3694 93.8522 100.203 99.4942C100.383 100.762 100.564 102.029 100.71 103.303C100.79 103.936 101.091 104.941 100.637 105.494Z" fill="white"/>
<g filter="url(#filter0_d_218_13)">
<path d="M103.361 110.454C103.407 109.54 103.825 106.987 103.812 106.49C103.766 100.129 99.73 79.1659 99.0834 74.0589L99.0443 73.7455C98.8222 71.7405 98.7373 69.3569 97.9994 67.463C97.2549 65.556 94.845 64.8899 93.1079 64.2172C85.9176 61.4743 77.8 59.1625 70.1722 61.5788C67.1942 62.5192 64.5101 64.1976 62.3549 66.8425C60.2064 64.1976 57.5157 62.5192 54.5443 61.5788C46.9164 59.1625 38.7988 61.4743 31.6085 64.2172C29.8714 64.8833 27.4485 65.5495 26.7105 67.463C25.9726 69.3569 25.8877 71.734 25.6656 73.7455L25.6265 74.0589C24.9799 79.1659 20.9505 100.129 20.8982 106.49C20.8852 106.993 21.3097 109.54 21.3554 110.454C21.4207 111.774 21.264 113.099 21.3293 114.412C21.1987 114.869 21.3162 115.3 21.597 115.64C21.7799 115.992 22.0607 116.208 22.3676 116.319C23.0664 117.09 24.3334 116.58 25.1628 116.319C32.5947 113.916 40.7645 114.007 48.4316 115.026C49.7899 115.202 51.1418 115.424 52.4871 115.685C53.8847 115.96 55.2104 116.456 56.5492 116.933C57.6529 117.325 58.8088 117.651 59.9713 117.873C60.8072 118.063 61.6235 118.141 61.9958 118.147C62.1264 118.147 62.2439 118.134 62.368 118.128C62.4921 118.128 62.6162 118.147 62.7403 118.147C63.1125 118.147 63.9288 118.069 64.7648 117.873C65.9272 117.651 67.0832 117.325 68.1868 116.933C69.5256 116.456 70.8579 115.96 72.2554 115.685C73.6008 115.424 74.9526 115.202 76.311 115.026C83.9715 114.007 92.1479 113.916 99.5798 116.319C100.403 116.587 101.67 117.09 102.368 116.319C102.682 116.208 102.956 115.992 103.139 115.64C103.42 115.3 103.537 114.869 103.407 114.412C103.452 113.093 103.296 111.774 103.361 110.454ZM44.2976 101.919C41.3001 101.821 38.296 101.971 35.331 102.389C32.7841 102.748 30.2698 103.316 27.8208 104.08C27.2265 104.263 26.5603 104.413 25.9987 104.694C25.6395 104.877 25.3456 105.086 25.0256 104.688C24.5815 104.152 24.8754 103.179 24.9473 102.565C25.0909 101.331 25.2542 100.103 25.4436 98.8755C26.2665 93.4093 27.3701 87.9954 28.1212 82.5162C28.4477 80.0933 28.7155 77.6508 29.0289 75.2279C29.1857 73.9806 29.362 72.7332 29.5644 71.4924C29.8126 69.9707 29.8649 68.8997 31.2885 67.9789C33.7114 66.4115 36.6176 65.7193 39.3931 65.0466C42.3842 64.3217 45.3687 63.7078 48.4642 63.8254C50.6324 63.9103 52.7418 64.485 54.6553 65.4972C55.5826 65.987 56.4708 66.5617 57.3133 67.1952C58.1492 67.8156 59.168 68.4817 59.8341 69.2785C60.4284 69.9838 60.6178 70.6238 60.6766 71.3552C60.2651 80.7137 60.3304 103.917 60.4023 105.563C60.4088 105.7 60.4219 105.837 60.4284 105.974C60.3957 106.151 60.2978 106.288 60.0104 106.288C59.6643 106.294 59.2855 106.066 58.9851 105.909C58.3647 105.582 57.7378 105.269 57.1108 104.975C53.0553 103.062 48.7842 102.062 44.2976 101.919ZM99.6712 104.681C99.3447 105.08 99.0573 104.871 98.6981 104.688C98.143 104.407 97.4769 104.257 96.8761 104.074C94.4271 103.31 91.9128 102.748 89.3658 102.382C86.4009 101.964 83.3902 101.821 80.3927 101.912C75.9126 102.056 71.6416 103.055 67.5795 104.969C66.9525 105.269 66.3256 105.582 65.7052 105.902C65.4048 106.059 65.026 106.281 64.6733 106.281C64.386 106.281 64.288 106.144 64.2554 105.968C64.2619 105.831 64.2815 105.694 64.2815 105.556C64.3533 103.911 64.4252 80.7072 64.0072 71.3487C64.066 70.6173 64.2554 69.9773 64.8431 69.272C65.5223 68.4752 66.5346 67.8026 67.3705 67.1887C68.213 66.5617 69.0946 65.9805 70.0285 65.4907C71.9485 64.4784 74.0514 63.9037 76.2196 63.8188C79.3151 63.6948 82.2996 64.3152 85.2907 65.0401C88.0662 65.7127 90.9724 66.3985 93.4018 67.9724C94.8254 68.8932 94.8777 69.9642 95.1259 71.4859C95.3283 72.7267 95.5046 73.974 95.6614 75.2214C95.9683 77.6508 96.2361 80.0867 96.5691 82.5096C97.3202 87.9823 98.4304 93.4028 99.2467 98.869C99.423 100.097 99.5994 101.324 99.743 102.559C99.8214 103.173 100.115 104.146 99.6712 104.681Z" fill="url(#paint0_linear_218_13)"/>
</g>
<path d="M55.2108 71.133C49.0263 68.2334 40.6932 68.0767 34.4694 71.0547C32.8237 71.8449 34.2605 74.2286 35.8931 73.4906C41.1895 71.0742 48.4516 71.44 53.5912 73.902C55.4459 74.7837 57.0721 72.0081 55.2108 71.133ZM55.0149 78.7739C48.432 75.8874 39.9683 74.7967 33.3266 78.2188C31.8833 78.9633 33.1502 81.0009 34.5805 80.3609C40.6736 77.6376 47.9749 79.2376 53.8982 81.4319C55.4329 82.0066 56.5235 79.4335 55.0149 78.7739ZM54.6688 86.3952C53.97 85.8074 52.9969 85.5332 52.1545 85.2262C46.0418 82.9927 37.9242 82.9013 32.0531 85.9054C30.76 86.565 31.8506 88.4458 33.1241 88.0801C36.3241 87.1723 39.3348 86.6695 42.6589 86.6368C45.2646 86.6107 47.6287 86.885 50.1169 87.6295C50.868 87.8515 51.5863 87.9364 52.3047 88.276C52.8206 88.5177 53.4606 88.8246 54.0288 88.8964C55.2696 89.0467 55.5243 87.2246 54.8255 86.5323L54.6688 86.3952ZM54.0223 93.7553C46.9561 90.4246 39.0278 91.0385 31.8768 93.5593C30.4008 94.0818 31.1061 96.3545 32.6082 95.8843C35.9715 94.8263 38.7731 94.0361 42.3454 93.9904C45.7806 93.9512 49.5096 95.0745 52.6574 96.3088C54.3488 96.9814 55.7398 94.5651 54.0223 93.7553ZM71.1065 73.8955C76.2461 71.4334 83.5083 71.0742 88.8046 73.4841C90.4308 74.2286 91.874 71.8383 90.2283 71.0481C84.0111 68.0701 75.678 68.2269 69.4934 71.1265C67.6257 72.0081 69.2453 74.7837 71.1065 73.8955ZM70.8061 81.4319C76.7294 79.2376 84.0307 77.6376 90.1238 80.3609C91.554 81.0009 92.821 78.9633 91.3777 78.2188C84.7295 74.7967 76.2657 75.8874 69.6893 78.7739C68.1808 79.4335 69.2649 82.0066 70.8061 81.4319ZM70.6689 88.903C71.2436 88.8311 71.8706 88.5242 72.3865 88.2826C73.1114 87.943 73.8298 87.8581 74.5808 87.636C77.069 86.8981 79.4331 86.6238 82.0388 86.6434C85.363 86.6695 88.3801 87.1723 91.5802 88.0866C92.8471 88.4524 93.9377 86.565 92.6512 85.9119C86.7801 82.9078 78.656 82.9992 72.5498 85.2327C71.7073 85.5397 70.7343 85.8074 70.0289 86.4017L69.8722 86.5454C69.1669 87.2246 69.4347 89.0532 70.6689 88.903ZM92.8275 93.5593C85.6764 91.0385 77.7482 90.4246 70.682 93.7553C68.9644 94.5651 70.3555 96.9814 72.0535 96.3088C75.1947 95.0745 78.9172 93.9512 82.3588 93.9904C85.9246 94.0361 88.7328 94.8263 92.0896 95.8843C93.5981 96.361 94.3034 94.0818 92.8275 93.5593Z" fill="#2F2F2F"/>
<g filter="url(#filter1_d_218_13)">
<path d="M78.8114 67.7738L93.2897 52.67V32.5315L107.768 17.4276L93.2897 2.32373L78.8114 17.4276H59.5071L45.0288 32.5315L78.8114 67.7738Z" fill="url(#paint1_linear_218_13)"/>
</g>
<path d="M69.1589 57.7047H54.6807V42.6008L69.1589 57.7047ZM93.2894 103.016H131.898V118.12H78.8111L93.2894 103.016Z" fill="white"/>
<path d="M61.9194 50.153L78.8107 67.7741L93.289 52.6703V32.5318L107.767 17.4279L100.528 9.87598L61.9194 50.153Z" fill="#BBD8FF"/>
<path d="M78.8114 67.7738L93.2897 52.67V32.5315L107.768 17.4276L93.2897 2.32373L78.8114 17.4276H59.5071L45.0288 32.5315L78.8114 67.7738Z" stroke="#092F63" stroke-width="4.64734" stroke-linecap="round" stroke-linejoin="round"/>
<g filter="url(#filter2_d_218_13)">
<path d="M69.1588 57.7045H54.6806V42.6007M20.8979 42.6007H35.3762H20.8979ZM64.3327 77.843V92.9469V77.843ZM45.0284 67.7738L35.3762 77.843L45.0284 67.7738ZM100.528 24.9795L117.42 42.6007V103.016M93.2893 103.016H131.898V118.12H78.811L93.2893 103.016Z" fill="url(#paint2_linear_218_13)"/>
</g>
<g filter="url(#filter3_f_218_13)">
<path d="M52.4369 58.1825L52.9605 39.8864L70.7404 58.1205L52.4369 58.1825Z" fill="#FFF94D"/>
</g>
<defs>
<filter id="filter0_d_218_13" x="-0.000198364" y="60.5645" width="124.71" height="99.3793" filterUnits="userSpaceOnUse" color-interpolation-filters="sRGB">
<feFlood flood-opacity="0" result="BackgroundImageFix"/>
<feColorMatrix in="SourceAlpha" type="matrix" values="0 0 0 0 0 0 0 0 0 0 0 0 0 0 0 0 0 0 127 0" result="hardAlpha"/>
<feOffset dy="20.8981"/>
<feGaussianBlur stdDeviation="10.4491"/>
<feComposite in2="hardAlpha" operator="out"/>
<feColorMatrix type="matrix" values="0 0 0 0 0 0 0 0 0 0 0 0 0 0 0 0 0 0 0.25 0"/>
<feBlend mode="normal" in2="BackgroundImageFix" result="effect1_dropShadow_218_13"/>
<feBlend mode="normal" in="SourceGraphic" in2="effect1_dropShadow_218_13" result="shape"/>
</filter>
<filter id="filter1_d_218_13" x="26.4394" y="2.32373" width="99.918" height="102.629" filterUnits="userSpaceOnUse" color-interpolation-filters="sRGB">
<feFlood flood-opacity="0" result="BackgroundImageFix"/>
<feColorMatrix in="SourceAlpha" type="matrix" values="0 0 0 0 0 0 0 0 0 0 0 0 0 0 0 0 0 0 127 0" result="hardAlpha"/>
<feOffset dy="18.5894"/>
<feGaussianBlur stdDeviation="9.29469"/>
<feComposite in2="hardAlpha" operator="out"/>
<feColorMatrix type="matrix" values="0 0 0 0 0 0 0 0 0 0 0 0 0 0 0 0 0 0 0.25 0"/>
<feBlend mode="normal" in2="BackgroundImageFix" result="effect1_dropShadow_218_13"/>
<feBlend mode="normal" in="SourceGraphic" in2="effect1_dropShadow_218_13" result="shape"/>
</filter>
<filter id="filter2_d_218_13" x="2.30858" y="24.9795" width="148.179" height="130.319" filterUnits="userSpaceOnUse" color-interpolation-filters="sRGB">
<feFlood flood-opacity="0" result="BackgroundImageFix"/>
<feColorMatrix in="SourceAlpha" type="matrix" values="0 0 0 0 0 0 0 0 0 0 0 0 0 0 0 0 0 0 127 0" result="hardAlpha"/>
<feOffset dy="18.5894"/>
<feGaussianBlur stdDeviation="9.29469"/>
<feComposite in2="hardAlpha" operator="out"/>
<feColorMatrix type="matrix" values="0 0 0 0 0 0 0 0 0 0 0 0 0 0 0 0 0 0 0.25 0"/>
<feBlend mode="normal" in2="BackgroundImageFix" result="effect1_dropShadow_218_13"/>
<feBlend mode="normal" in="SourceGraphic" in2="effect1_dropShadow_218_13" result="shape"/>
</filter>
<filter id="filter3_f_218_13" x="50.1067" y="37.5562" width="22.9639" height="22.9565" filterUnits="userSpaceOnUse" color-interpolation-filters="sRGB">
<feFlood flood-opacity="0" result="BackgroundImageFix"/>
<feBlend mode="normal" in="SourceGraphic" in2="BackgroundImageFix" result="shape"/>
<feGaussianBlur stdDeviation="1.16516" result="effect1_foregroundBlur_218_13"/>
</filter>
<linearGradient id="paint0_linear_218_13" x1="62.3549" y1="60.5645" x2="62.3549" y2="118.147" gradientUnits="userSpaceOnUse">
<stop stop-color="#8A6C95"/>
<stop offset="1" stop-color="#2A4682"/>
</linearGradient>
<linearGradient id="paint1_linear_218_13" x1="76.3984" y1="2.32373" x2="76.3984" y2="67.7738" gradientUnits="userSpaceOnUse">
<stop stop-color="#8A6C95"/>
<stop offset="1" stop-color="#2A4682"/>
</linearGradient>
<linearGradient id="paint2_linear_218_13" x1="76.3979" y1="24.9795" x2="76.3979" y2="118.12" gradientUnits="userSpaceOnUse">
<stop stop-color="#8A6C95"/>
<stop offset="1" stop-color="#2A4682"/>
</linearGradient>
</defs>
</svg>
