<svg width="355" height="260" viewBox="0 0 355 260" fill="none" xmlns="http://www.w3.org/2000/svg">
<g clip-path="url(#clip0_146_7)">
<path d="M161.154 46.592C115.242 46.592 78.0434 83.803 78.0308 129.715C78.0434 175.614 115.242 212.819 161.154 212.844C207.066 212.819 244.264 175.608 244.27 129.715C244.27 83.803 207.059 46.5984 161.154 46.592ZM161.154 193.827C125.754 193.758 97.0985 165.115 97.0352 129.715C97.0586 112.716 103.821 96.4205 115.841 84.4C127.86 72.3795 144.155 65.6153 161.154 65.5901C178.15 65.6169 194.443 72.3811 206.461 84.4C218.478 96.4189 225.241 112.712 225.266 129.709C225.203 165.108 196.56 193.764 161.154 193.815V193.827ZM117.616 129.715C117.616 128.035 116.949 126.425 115.762 125.237C114.574 124.05 112.963 123.382 111.284 123.382C109.604 123.382 107.993 124.05 106.806 125.237C105.618 126.425 104.951 128.035 104.951 129.715C104.951 131.395 105.618 133.005 106.806 134.193C107.993 135.381 109.604 136.048 111.284 136.048C112.963 136.048 114.574 135.381 115.762 134.193C116.949 133.005 117.616 131.395 117.616 129.715ZM114.792 149.169C113.707 149.796 112.832 150.73 112.278 151.854C111.725 152.978 111.517 154.241 111.681 155.484C111.846 156.726 112.375 157.891 113.202 158.833C114.029 159.774 115.117 160.449 116.327 160.772C117.538 161.095 118.818 161.051 120.003 160.647C121.189 160.242 122.229 159.495 122.99 158.499C123.751 157.504 124.2 156.305 124.279 155.054C124.359 153.804 124.065 152.558 123.436 151.474C122.591 150.024 121.206 148.967 119.584 148.534C117.962 148.101 116.235 148.327 114.779 149.163L114.792 149.169ZM121.125 99.2927C120.403 98.8454 119.599 98.5477 118.761 98.4173C117.922 98.2868 117.065 98.3264 116.242 98.5335C115.419 98.7406 114.646 99.1111 113.969 99.623C113.292 100.135 112.724 100.778 112.301 101.513C111.877 102.249 111.605 103.062 111.502 103.904C111.399 104.747 111.466 105.601 111.699 106.418C111.933 107.234 112.328 107.994 112.862 108.655C113.395 109.315 114.056 109.861 114.805 110.261C116.254 111.021 117.941 111.191 119.513 110.734C121.084 110.278 122.418 109.23 123.234 107.812C124.051 106.394 124.287 104.715 123.892 103.126C123.498 101.538 122.51 100.164 121.125 99.2927ZM207.515 110.261C208.274 109.867 208.945 109.323 209.488 108.662C210.031 108.002 210.434 107.238 210.674 106.418C210.913 105.597 210.985 104.737 210.883 103.888C210.781 103.039 210.508 102.219 210.081 101.479C209.654 100.738 209.082 100.092 208.398 99.5783C207.715 99.0648 206.934 98.6951 206.104 98.4915C205.274 98.2878 204.411 98.2544 203.567 98.3932C202.723 98.532 201.917 98.8401 201.195 99.2991C199.819 100.175 198.833 101.548 198.445 103.133C198.056 104.718 198.294 106.391 199.109 107.805C199.924 109.218 201.253 110.263 202.819 110.72C204.385 111.178 206.068 111.013 207.515 110.261ZM139.376 167.426C137.927 166.675 136.245 166.511 134.679 166.969C133.113 167.427 131.783 168.471 130.968 169.884C130.152 171.297 129.912 172.97 130.299 174.555C130.685 176.141 131.668 177.516 133.043 178.394C134.497 179.221 136.218 179.439 137.832 179.001C139.446 178.563 140.821 177.504 141.657 176.056C142.493 174.608 142.723 172.887 142.295 171.271C141.868 169.654 140.818 168.272 139.376 167.426ZM139.376 92.0038C140.83 91.164 141.891 89.7809 142.326 88.1586C142.761 86.5363 142.533 84.8078 141.693 83.3533C141.068 82.2691 140.136 81.3945 139.014 80.8403C137.892 80.2861 136.631 80.0771 135.39 80.2398C134.149 80.4024 132.984 80.9295 132.043 81.7542C131.102 82.5789 130.426 83.6642 130.102 84.8729C129.778 86.0816 129.819 87.3593 130.221 88.5445C130.623 89.7296 131.367 90.7689 132.36 91.5309C133.353 92.2929 134.549 92.7433 135.798 92.8253C137.047 92.9072 138.292 92.6169 139.376 91.9911V92.0038ZM207.515 149.169C206.061 148.334 204.334 148.108 202.714 148.541C201.093 148.974 199.709 150.031 198.865 151.48C198.087 152.931 197.904 154.627 198.354 156.21C198.804 157.793 199.853 159.139 201.277 159.963C202.702 160.787 204.391 161.025 205.988 160.626C207.584 160.227 208.964 159.223 209.833 157.826C210.672 156.37 210.9 154.641 210.467 153.017C210.034 151.393 208.975 150.007 207.522 149.163L207.515 149.169ZM189.271 81.0292C187.821 80.2708 186.134 80.1023 184.563 80.5591C182.992 81.0159 181.658 82.0626 180.841 83.4803C180.023 84.8979 179.786 86.5766 180.178 88.1652C180.57 89.7538 181.562 91.1293 182.945 92.0038C183.666 92.432 184.465 92.7126 185.295 92.8295C186.126 92.9463 186.971 92.897 187.783 92.6844C188.594 92.4719 189.355 92.1003 190.021 91.5912C190.688 91.0821 191.247 90.4456 191.665 89.7188C192.084 88.992 192.354 88.1893 192.46 87.3573C192.565 86.5253 192.505 85.6806 192.282 84.8722C192.058 84.0637 191.677 83.3077 191.159 82.648C190.641 81.9883 189.997 81.4381 189.265 81.0292H189.271ZM211.055 123.382C209.376 123.382 207.765 124.05 206.578 125.237C205.39 126.425 204.723 128.035 204.723 129.715C204.723 131.395 205.39 133.005 206.578 134.193C207.765 135.381 209.376 136.048 211.055 136.048C212.735 136.048 214.346 135.381 215.533 134.193C216.721 133.005 217.388 131.395 217.388 129.715C217.388 128.035 216.721 126.425 215.533 125.237C214.346 124.05 212.735 123.382 211.055 123.382ZM161.154 73.506C157.671 73.506 154.821 76.3431 154.821 79.8387L151.876 126.34L132.853 138.752C131.398 139.592 130.337 140.976 129.903 142.599C129.469 144.222 129.698 145.951 130.538 147.405C131.379 148.86 132.763 149.921 134.386 150.355C136.009 150.789 137.737 150.561 139.192 149.72L160.128 139.1C160.47 139.144 160.812 139.208 161.173 139.208C166.429 139.208 170.672 134.965 170.672 129.709L167.505 79.8324C167.505 78.1528 166.838 76.5421 165.651 75.3545C164.463 74.1669 162.852 73.4997 161.173 73.4997L161.154 73.506ZM161.154 173.265C157.671 173.265 154.821 176.096 154.821 179.598C154.821 183.1 157.671 185.93 161.154 185.93C164.637 185.93 167.486 183.1 167.486 179.598C167.486 176.096 164.656 173.265 161.154 173.265ZM182.938 167.426C181.852 168.05 180.975 168.983 180.418 170.106C179.862 171.229 179.651 172.491 179.812 173.734C179.974 174.977 180.501 176.143 181.326 177.087C182.151 178.03 183.237 178.707 184.447 179.033C185.657 179.358 186.937 179.318 188.123 178.916C189.31 178.514 190.351 177.769 191.115 176.775C191.878 175.781 192.329 174.583 192.411 173.333C192.493 172.082 192.203 170.835 191.576 169.75C191.161 169.03 190.608 168.398 189.948 167.891C189.288 167.384 188.536 167.012 187.732 166.796C186.929 166.58 186.091 166.525 185.266 166.633C184.442 166.741 183.646 167.011 182.926 167.426H182.938Z" fill="url(#paint0_linear_146_7)"/>
<g filter="url(#filter0_d_146_7)">
<path d="M63.582 49.0728C65.4963 49.0728 67.2889 49.8154 68.6461 51.1726C69.9969 52.5299 70.746 54.3225 70.746 56.2367C70.746 58.1509 69.9969 59.9435 68.6461 61.3008C67.2889 62.6516 65.4963 63.4007 63.582 63.4007C61.6678 63.4007 59.8752 62.6516 58.518 61.3008C57.1671 59.9435 56.4181 58.1509 56.4181 56.2367C56.4181 54.3225 57.1671 52.5299 58.518 51.1726C59.1809 50.5046 59.9699 49.975 60.8393 49.6145C61.7086 49.254 62.6409 49.0699 63.582 49.0728ZM37.1862 64.1497L41.3732 60.5709C41.1747 59.3545 41.0723 58.1125 41.0723 56.8769C41.0723 55.6413 41.1747 54.3929 41.3732 53.1829L37.1862 49.6041C36.8699 49.3334 36.6435 48.9727 36.5372 48.5702C36.4308 48.1676 36.4495 47.7422 36.5908 47.3506L36.6484 47.1841C37.8007 43.9619 39.5273 40.9751 41.7445 38.3684L41.8597 38.234C42.129 37.9174 42.4878 37.6899 42.8889 37.5813C43.2901 37.4727 43.7147 37.4882 44.1068 37.6258L49.3054 39.476C51.226 37.9011 53.3643 36.6591 55.6818 35.7948L56.687 30.3594C56.7628 29.9499 56.9614 29.5732 57.2565 29.2794C57.5515 28.9855 57.929 28.7883 58.3387 28.7141L58.5116 28.6821C61.8407 28.0803 65.349 28.0803 68.6781 28.6821L68.851 28.7141C69.2607 28.7883 69.6382 28.9855 69.9332 29.2794C70.2283 29.5732 70.4269 29.9499 70.5027 30.3594L71.5142 35.8204C73.8099 36.6915 75.9484 37.9305 77.8459 39.4888L83.0828 37.6258C83.4749 37.4871 83.8998 37.4711 84.3012 37.5797C84.7026 37.6883 85.0614 37.9165 85.33 38.234L85.4452 38.3684C87.6585 40.9778 89.3846 43.9639 90.5413 47.1841L90.5989 47.3506C90.887 48.1508 90.6501 49.0471 90.0035 49.6041L85.7653 53.2213C85.9638 54.4249 86.0598 55.6541 86.0598 56.8705C86.0598 58.0997 85.9638 59.3289 85.7653 60.5197L89.9907 64.1369C90.307 64.4077 90.5334 64.7683 90.6397 65.1708C90.7461 65.5734 90.7274 65.9988 90.5861 66.3904L90.5285 66.5569C89.3697 69.7771 87.6603 72.7541 85.4324 75.3726L85.3172 75.507C85.0479 75.8236 84.6891 76.0512 84.288 76.1597C83.8868 76.2683 83.4622 76.2528 83.07 76.1152L77.8331 74.2522C75.9253 75.8207 73.7998 77.0627 71.5014 77.9206L70.4899 83.3816C70.4141 83.7911 70.2154 84.1678 69.9204 84.4617C69.6254 84.7555 69.2479 84.9527 68.8382 85.0269L68.6653 85.059C65.3035 85.6639 61.8606 85.6639 58.4988 85.059L58.3259 85.0269C57.9162 84.9527 57.5387 84.7555 57.2437 84.4617C56.9486 84.1678 56.75 83.7911 56.6742 83.3816L55.669 77.9462C53.3515 77.0755 51.2132 75.8399 49.2925 74.265L44.094 76.1152C43.702 76.2539 43.2771 76.27 42.8757 76.1613C42.4743 76.0527 42.1155 75.8245 41.8469 75.507L41.7317 75.3726C39.5037 72.7413 37.7944 69.7771 36.6356 66.5569L36.578 66.3904C36.3027 65.5966 36.5396 64.7067 37.1862 64.1497ZM63.582 67.4916C69.7985 67.4916 74.8369 62.4531 74.8369 56.2367C74.8369 50.0203 69.7985 44.9818 63.582 44.9818C57.3656 44.9818 52.3271 50.0203 52.3271 56.2367C52.3271 62.4531 57.3656 67.4916 63.582 67.4916Z" fill="url(#paint1_linear_146_7)"/>
<path d="M68.5735 29.261C65.3137 28.6717 61.8762 28.6708 58.6165 29.26L58.4456 29.2922L58.4436 29.2932C58.1513 29.3462 57.8816 29.4869 57.6711 29.6965C57.461 29.906 57.319 30.1743 57.2649 30.4661L56.26 35.9016L56.1995 36.2297L55.887 36.3459C53.632 37.1869 51.5498 38.396 49.678 39.9309L49.4211 40.1418L49.1077 40.0305L43.9124 38.1809C43.6324 38.0827 43.3287 38.0712 43.0422 38.1487C42.7559 38.2262 42.5 38.3895 42.3079 38.6155L42.3059 38.6165L42.1926 38.7483V38.7493C40.0215 41.3018 38.3308 44.2268 37.2024 47.3821L37.1467 47.5432L37.1438 47.55C37.043 47.8294 37.0299 48.1331 37.1057 48.4202C37.1721 48.6715 37.3043 48.8997 37.4875 49.0823L37.5686 49.1575L41.7551 52.7356L42.0071 52.9514L41.9534 53.2786C41.7601 54.457 41.6604 55.6738 41.6604 56.8772C41.6604 58.0803 41.76 59.2905 41.9534 60.4758L42.0071 60.803L41.7551 61.0178L37.5686 64.5959C37.1051 64.996 36.9382 65.6326 37.134 66.1975V66.1985L37.1917 66.3645C38.3265 69.5158 39.9994 72.4159 42.1799 74.9915L42.2932 75.1243L42.2961 75.1272C42.4876 75.3534 42.7434 75.5166 43.0295 75.594C43.3155 75.6713 43.6184 75.6595 43.8977 75.5608H43.8967L49.095 73.7112L49.4084 73.5999L49.6653 73.8098C51.5365 75.3442 53.6193 76.5479 55.8762 77.3958L56.1868 77.5129L56.2473 77.8391L57.2522 83.2747C57.3063 83.5667 57.448 83.8355 57.6584 84.0452C57.8689 84.2548 58.1386 84.3955 58.4309 84.4485H58.4329L58.6028 84.4797C61.8957 85.0723 65.2688 85.0723 68.5618 84.4797L68.7307 84.4485H68.7336C69.0257 84.3955 69.2948 84.2546 69.5051 84.0452C69.7155 83.8356 69.8573 83.5667 69.9114 83.2747L70.9231 77.8137L70.9836 77.4856L71.2961 77.3694C73.5308 76.5352 75.5997 75.3268 77.4592 73.7981L77.717 73.5862L78.0305 73.6985L83.2649 75.5598C83.5448 75.658 83.8477 75.6695 84.134 75.592C84.4204 75.5145 84.6772 75.3522 84.8694 75.1262L84.8704 75.1243L84.9856 74.9895H84.9866C87.0306 72.5867 88.629 69.875 89.7561 66.9465L89.9749 66.3577L90.0305 66.1985L90.0325 66.1907L90.0667 66.0852C90.1356 65.8362 90.1378 65.5726 90.0715 65.3215C89.9957 65.0345 89.8342 64.7764 89.6086 64.5833L85.3831 60.9661L85.1301 60.7502L85.1848 60.4231C85.3776 59.2663 85.4719 58.0693 85.4719 56.8704C85.4719 55.6846 85.3778 54.4872 85.1848 53.3167L85.1311 52.9895L85.3831 52.7737L89.6213 49.1565C90.0827 48.7577 90.25 48.1191 90.0452 47.55L90.0432 47.5432L89.9875 47.3831C88.8547 44.2292 87.165 41.3039 84.9973 38.7483L84.8831 38.6165L84.8811 38.6135C84.6897 38.3873 84.4337 38.2252 84.1477 38.1477C83.8619 38.0703 83.5588 38.0804 83.2795 38.179V38.1799L78.0432 40.0432L77.7297 40.1545L77.4729 39.9436C75.6248 38.4259 73.5417 37.2188 71.3059 36.3704L70.9963 36.2532L70.9358 35.928L69.9241 30.4661C69.8699 30.1742 69.7281 29.9061 69.5178 29.6965C69.3074 29.487 69.0385 29.3462 68.7463 29.2932L68.7434 29.2922L68.5745 29.26L68.5735 29.261ZM63.5823 44.3938C70.1234 44.3939 75.425 49.6954 75.425 56.2366C75.425 62.7778 70.1234 68.0792 63.5823 68.0793C57.041 68.0793 51.7385 62.7778 51.7385 56.2366C51.7386 49.6954 57.0411 44.3938 63.5823 44.3938ZM63.5823 49.6614H63.5803C62.7172 49.6587 61.862 49.8269 61.0647 50.1575C60.2674 50.4881 59.5438 50.9745 58.9358 51.5872H58.9348C57.6923 52.8355 57.0061 54.4798 57.0061 56.2366C57.0061 57.9925 57.6915 59.6359 58.9329 60.884C60.1813 62.1265 61.8255 62.8127 63.5823 62.8127C65.3381 62.8127 66.9816 62.1273 68.2297 60.886H68.2288C69.4713 59.6376 70.1575 57.9934 70.1575 56.2366C70.1574 54.4801 69.4719 52.8364 68.2297 51.5881C66.9827 50.3413 65.34 49.6614 63.5823 49.6614Z" stroke="black" stroke-width="1.17628"/>
</g>
<g filter="url(#filter1_d_146_7)">
<path d="M107.417 220.059C108.938 220.059 110.363 220.649 111.441 221.728C112.515 222.806 113.11 224.231 113.11 225.752C113.11 227.273 112.515 228.698 111.441 229.776C110.363 230.85 108.938 231.445 107.417 231.445C105.896 231.445 104.472 230.85 103.393 229.776C102.32 228.698 101.724 227.273 101.724 225.752C101.724 224.231 102.32 222.806 103.393 221.728C103.92 221.197 104.547 220.776 105.238 220.49C105.929 220.203 106.669 220.057 107.417 220.059ZM86.4418 232.04L89.7689 229.196C89.6112 228.23 89.5298 227.243 89.5298 226.261C89.5298 225.279 89.6112 224.287 89.7689 223.325L86.4418 220.481C86.1904 220.266 86.0105 219.98 85.926 219.66C85.8415 219.34 85.8564 219.002 85.9686 218.691L86.0144 218.558C86.9301 215.998 88.3021 213.624 90.064 211.553L90.1556 211.446C90.3695 211.195 90.6547 211.014 90.9735 210.928C91.2922 210.841 91.6297 210.854 91.9413 210.963L96.0723 212.433C97.5985 211.182 99.2977 210.195 101.139 209.508L101.938 205.189C101.998 204.863 102.156 204.564 102.391 204.33C102.625 204.097 102.925 203.94 103.251 203.881L103.388 203.856C106.033 203.378 108.821 203.378 111.467 203.856L111.604 203.881C111.93 203.94 112.23 204.097 112.464 204.33C112.699 204.564 112.857 204.863 112.917 205.189L113.721 209.528C115.545 210.22 117.244 211.205 118.752 212.443L122.914 210.963C123.225 210.853 123.563 210.84 123.882 210.926C124.201 211.013 124.486 211.194 124.699 211.446L124.791 211.553C126.55 213.627 127.921 215.999 128.84 218.558L128.886 218.691C129.115 219.327 128.927 220.039 128.413 220.481L125.045 223.356C125.203 224.312 125.279 225.289 125.279 226.256C125.279 227.232 125.203 228.209 125.045 229.156L128.403 232.03C128.654 232.245 128.834 232.532 128.919 232.852C129.003 233.171 128.988 233.509 128.876 233.821L128.83 233.953C127.909 236.512 126.551 238.878 124.781 240.958L124.689 241.065C124.475 241.317 124.19 241.498 123.871 241.584C123.552 241.67 123.215 241.658 122.903 241.549L118.742 240.068C117.226 241.315 115.537 242.301 113.71 242.983L112.907 247.323C112.846 247.648 112.688 247.947 112.454 248.181C112.22 248.415 111.92 248.571 111.594 248.63L111.457 248.656C108.785 249.136 106.049 249.136 103.378 248.656L103.24 248.63C102.915 248.571 102.615 248.415 102.38 248.181C102.146 247.947 101.988 247.648 101.928 247.323L101.129 243.004C99.2875 242.312 97.5883 241.33 96.0621 240.078L91.9311 241.549C91.6196 241.659 91.2819 241.671 90.9629 241.585C90.644 241.499 90.3588 241.317 90.1454 241.065L90.0538 240.958C88.2834 238.867 86.9251 236.512 86.0042 233.953L85.9585 233.821C85.7397 233.19 85.9279 232.483 86.4418 232.04ZM107.417 234.696C112.357 234.696 116.361 230.692 116.361 225.752C116.361 220.812 112.357 216.808 107.417 216.808C102.477 216.808 98.4735 220.812 98.4735 225.752C98.4735 230.692 102.477 234.696 107.417 234.696Z" fill="url(#paint2_linear_146_7)"/>
<path d="M111.383 204.314C108.793 203.846 106.062 203.847 103.473 204.314V204.315L103.336 204.341H103.334C103.102 204.383 102.888 204.495 102.721 204.661C102.554 204.828 102.44 205.041 102.397 205.273L101.599 209.593L101.551 209.854L101.303 209.945C99.5107 210.614 97.8557 211.575 96.3682 212.795L96.1641 212.962L95.916 212.873L91.7871 211.403L91.7861 211.404C91.5637 211.326 91.3232 211.317 91.0957 211.379C90.8681 211.441 90.6645 211.569 90.5117 211.749L90.5107 211.75L90.4189 211.856C88.6953 213.883 87.3526 216.205 86.4561 218.71V218.711L86.4102 218.844L86.4082 218.85C86.3283 219.071 86.3178 219.312 86.3779 219.54C86.4382 219.768 86.5668 219.973 86.7461 220.126L90.0723 222.97L90.2725 223.142L90.2305 223.401C90.0769 224.338 89.9971 225.304 89.9971 226.261C89.9971 227.217 90.0768 228.179 90.2305 229.121L90.2725 229.381L90.0723 229.552L86.7471 232.394V232.395C86.3781 232.712 86.2446 233.219 86.4004 233.668L86.4443 233.795C87.2899 236.145 88.5114 238.319 90.0898 240.27L90.4092 240.654L90.5 240.761L90.502 240.764C90.6541 240.943 90.8576 241.072 91.085 241.134C91.3124 241.195 91.5533 241.186 91.7754 241.107H91.7764L95.9053 239.638L96.1543 239.55L96.3584 239.717C97.8454 240.936 99.5005 241.893 101.294 242.566L101.541 242.659L101.589 242.919L102.388 247.237C102.431 247.469 102.543 247.683 102.71 247.85C102.877 248.016 103.092 248.128 103.324 248.17L103.325 248.171L103.461 248.195C106.078 248.666 108.757 248.666 111.374 248.195H111.375L111.509 248.171L111.511 248.17C111.743 248.128 111.957 248.016 112.124 247.85C112.291 247.683 112.404 247.469 112.447 247.237L113.251 242.898L113.299 242.638L113.547 242.545L113.878 242.418C115.528 241.762 117.06 240.846 118.445 239.707L118.649 239.539L118.898 239.628L123.058 241.107C123.28 241.185 123.521 241.194 123.749 241.133C123.977 241.071 124.18 240.942 124.333 240.763L124.334 240.761L124.426 240.654C126.05 238.745 127.321 236.59 128.217 234.263L128.391 233.795L128.435 233.668L128.437 233.662C128.517 233.44 128.527 233.199 128.467 232.971C128.406 232.743 128.278 232.538 128.099 232.385L124.741 229.511L124.541 229.339L124.584 229.079C124.737 228.16 124.812 227.209 124.812 226.256C124.812 225.314 124.737 224.362 124.584 223.432L124.541 223.172L124.742 223L128.109 220.126C128.476 219.809 128.609 219.301 128.446 218.849L128.444 218.844L128.4 218.717C127.5 216.211 126.158 213.887 124.437 211.856L124.436 211.857L124.345 211.75L124.343 211.748C124.191 211.568 123.987 211.438 123.76 211.377C123.533 211.316 123.292 211.324 123.07 211.402V211.403L118.909 212.884L118.66 212.973L118.455 212.805C116.986 211.599 115.331 210.639 113.555 209.965L113.309 209.872L113.261 209.613L112.457 205.273C112.414 205.041 112.302 204.828 112.135 204.661C111.968 204.495 111.753 204.383 111.521 204.341H111.52L111.382 204.315L111.383 204.314ZM107.417 216.341C112.615 216.341 116.828 220.554 116.828 225.752C116.828 230.95 112.615 235.163 107.417 235.163C102.219 235.163 98.0059 230.95 98.0059 225.752C98.0059 220.554 102.219 216.341 107.417 216.341ZM107.417 220.526H107.416C106.73 220.524 106.051 220.659 105.417 220.922C104.783 221.185 104.208 221.57 103.725 222.057V222.058C102.737 223.05 102.191 224.356 102.191 225.752C102.191 227.148 102.737 228.454 103.725 229.446C104.716 230.433 106.022 230.977 107.417 230.978C108.726 230.978 109.956 230.498 110.922 229.625L111.111 229.445C112.098 228.453 112.643 227.147 112.643 225.752C112.643 224.356 112.098 223.05 111.111 222.059C110.12 221.068 108.814 220.526 107.417 220.526Z" stroke="black" stroke-width="0.934733"/>
</g>
</g>
<g clip-path="url(#clip1_146_7)">
<path d="M259.118 140.795C259.888 154.065 253.81 166.823 242.936 174.614L249.529 187.371C251.498 191.224 251.755 195.762 250.042 199.786C248.416 203.81 245.076 206.978 240.967 208.348L234.203 210.488C231.386 211.433 228.347 211.488 225.498 210.646C222.648 209.803 220.128 208.104 218.278 205.779L200.127 184.374C192.507 183.09 185.315 179.837 179.236 174.956C174.955 176.241 170.674 176.926 166.393 176.926C158.859 176.926 151.324 174.614 144.988 170.162C140.451 171.532 135.827 172.131 131.118 172.045C124.354 172.131 117.676 170.761 111.426 168.192C105.407 165.512 100.264 161.192 96.5844 155.726C92.9051 150.26 90.8384 143.869 90.6207 137.284C89.9358 131.12 90.9632 124.869 93.6174 119.219C91.1344 112.797 90.8776 105.777 93.018 99.2696C96.1859 91.1358 102.179 84.372 109.628 80.091C114.594 65.6215 128.55 55.9466 143.875 56.974C157.574 44.1313 178.551 42.7614 193.791 53.8062C197.387 52.8644 201.154 52.3507 204.921 52.3507C216.565 52.0938 227.61 57.2309 234.888 66.3921C252.354 70.9299 264.854 86.5124 265.539 104.664C265.967 114.167 263.399 123.5 258.176 131.462C258.775 134.544 259.118 137.627 259.118 140.795ZM216.309 128.722C221.189 129.322 225.042 133.003 225.042 137.883C225.042 140.154 224.14 142.332 222.534 143.938C220.928 145.543 218.751 146.445 216.48 146.445H211.086C208.346 154.151 203.551 160.915 197.216 166.052C199.356 166.823 201.582 167.251 203.808 167.85C247.731 167.251 242.593 140.452 242.593 140.024C242.483 137.111 241.8 134.249 240.582 131.6C239.365 128.952 237.637 126.57 235.498 124.589C233.359 122.609 230.85 121.071 228.116 120.061C225.381 119.051 222.475 118.59 219.562 118.705C217.291 118.705 215.114 117.803 213.508 116.197C211.902 114.592 211 112.414 211 110.143C211 107.872 211.902 105.695 213.508 104.089C215.114 102.483 217.291 101.581 219.562 101.581C230.093 101.838 240.196 105.777 248.073 112.712C248.501 110.229 248.758 107.66 248.758 105.092C248.244 94.4749 243.45 85.2281 224.186 83.4302C213.483 58.0871 186.513 72.1285 186.513 80.0054C186.257 81.9746 188.311 86.1699 188.654 86.4268C190.925 86.4268 193.102 87.3289 194.708 88.9345C196.314 90.5402 197.216 92.7179 197.216 94.9886C197.216 99.6977 193.363 103.551 188.654 103.551C184.116 103.379 179.835 101.667 176.41 98.7559C172.301 101.41 167.592 103.037 162.711 103.551C157.831 103.979 153.807 100.554 153.55 95.8448C153.395 94.7268 153.469 93.5889 153.769 92.5005C154.068 91.4122 154.586 90.3963 155.291 89.5149C155.996 88.6334 156.874 87.905 157.87 87.3741C158.866 86.8431 159.96 86.5208 161.085 86.4268C162.455 86.2556 169.133 85.2281 169.133 79.8342C169.133 74.1834 171.273 68.7894 174.955 64.5085C167.078 62.368 158.602 65.1934 150.04 75.5533C134.286 73.0703 127.865 75.2108 123.156 91.9064C115.022 95.9305 110.741 98.7559 108.857 107.318C118.104 105.434 127.608 106.205 136.427 109.458C140.708 111.085 143.105 115.88 141.478 120.503C139.851 124.955 134.885 127.181 130.433 125.554C124.183 122.815 117.162 122.643 110.741 125.041C108.001 127.352 108.001 132.147 108.001 135.914C108.001 142.25 111.169 148.158 116.563 151.582C121.101 153.894 126.152 155.093 131.204 155.007C129.92 152.781 128.807 150.469 127.865 148.072C127.191 145.872 127.396 143.497 128.438 141.445C129.479 139.394 131.275 137.826 133.449 137.072C135.623 136.318 138.004 136.436 140.092 137.402C142.18 138.368 143.813 140.106 144.646 142.25C148.071 152.011 156.804 158.689 167.078 159.802C178.808 159.203 189.253 152.267 194.39 141.565C196.36 129.75 205.863 128.722 216.309 128.722ZM233.432 192.679L228.124 181.549L222.045 182.919L230.607 193.621L233.432 192.679ZM193.62 118.962C193.694 116.775 192.928 114.642 191.479 113.002C190.03 111.362 188.008 110.339 185.828 110.143C179.75 109.801 173.842 111.855 169.304 115.88C164.424 120.845 161.855 127.695 162.112 134.63C162.112 136.901 163.014 139.078 164.62 140.684C166.226 142.29 168.403 143.192 170.674 143.192C175.554 143.192 179.236 139.339 179.236 134.63C179.236 132.318 179.835 130.007 181.205 128.123C182.232 127.267 183.517 126.839 184.887 126.839C189.596 127.096 193.62 123.585 193.62 118.962Z" fill="url(#paint3_linear_146_7)"/>
</g>
<defs>
<filter id="filter0_d_146_7" x="31.7597" y="28.2307" width="63.6654" height="66.6922" filterUnits="userSpaceOnUse" color-interpolation-filters="sRGB">
<feFlood flood-opacity="0" result="BackgroundImageFix"/>
<feColorMatrix in="SourceAlpha" type="matrix" values="0 0 0 0 0 0 0 0 0 0 0 0 0 0 0 0 0 0 127 0" result="hardAlpha"/>
<feOffset dy="4.70513"/>
<feGaussianBlur stdDeviation="2.35256"/>
<feComposite in2="hardAlpha" operator="out"/>
<feColorMatrix type="matrix" values="0 0 0 0 0 0 0 0 0 0 0 0 0 0 0 0 0 0 0.25 0"/>
<feBlend mode="normal" in2="BackgroundImageFix" result="effect1_dropShadow_146_7"/>
<feBlend mode="normal" in="SourceGraphic" in2="effect1_dropShadow_146_7" result="shape"/>
</filter>
<filter id="filter1_d_146_7" x="82.1297" y="203.497" width="50.5916" height="52.9972" filterUnits="userSpaceOnUse" color-interpolation-filters="sRGB">
<feFlood flood-opacity="0" result="BackgroundImageFix"/>
<feColorMatrix in="SourceAlpha" type="matrix" values="0 0 0 0 0 0 0 0 0 0 0 0 0 0 0 0 0 0 127 0" result="hardAlpha"/>
<feOffset dy="3.73893"/>
<feGaussianBlur stdDeviation="1.86947"/>
<feComposite in2="hardAlpha" operator="out"/>
<feColorMatrix type="matrix" values="0 0 0 0 0 0 0 0 0 0 0 0 0 0 0 0 0 0 0.25 0"/>
<feBlend mode="normal" in2="BackgroundImageFix" result="effect1_dropShadow_146_7"/>
<feBlend mode="normal" in="SourceGraphic" in2="effect1_dropShadow_146_7" result="shape"/>
</filter>
<linearGradient id="paint0_linear_146_7" x1="161.151" y1="46.592" x2="161.151" y2="212.844" gradientUnits="userSpaceOnUse">
<stop stop-color="#8A6C95"/>
<stop offset="1" stop-color="#2A4682"/>
</linearGradient>
<linearGradient id="paint1_linear_146_7" x1="63.5925" y1="28.2307" x2="63.5925" y2="85.5127" gradientUnits="userSpaceOnUse">
<stop stop-color="#8A6C95"/>
<stop offset="1" stop-color="#2A4682"/>
</linearGradient>
<linearGradient id="paint2_linear_146_7" x1="107.426" y1="203.497" x2="107.426" y2="249.016" gradientUnits="userSpaceOnUse">
<stop stop-color="#8A6C95"/>
<stop offset="1" stop-color="#2A4682"/>
</linearGradient>
<linearGradient id="paint3_linear_146_7" x1="178" y1="46.3516" x2="178" y2="211.239" gradientUnits="userSpaceOnUse">
<stop stop-color="#76C7D4"/>
<stop offset="1" stop-color="#2A4682"/>
</linearGradient>
<clipPath id="clip0_146_7">
<rect width="161.151" height="259.148" fill="white" transform="matrix(-1 0 0 1 161.151 0)"/>
</clipPath>
<clipPath id="clip1_146_7">
<rect width="204.673" height="188.078" fill="white" transform="translate(162.327 35.2886)"/>
</clipPath>
</defs>
</svg>
