<svg width="270" height="182" viewBox="0 0 270 182" fill="none" xmlns="http://www.w3.org/2000/svg">
<g filter="url(#filter0_d_186_171)">
<path fill-rule="evenodd" clip-rule="evenodd" d="M151.174 165H191.911C220.52 165 234.829 165 245.105 158.263C249.54 155.358 253.359 151.608 256.343 147.226C263.209 137.143 263.209 123.09 263.209 95.0035C263.209 66.9169 263.209 52.8645 256.343 42.7812C253.359 38.3994 249.54 34.649 245.105 31.7445C238.505 27.4087 230.236 25.8595 217.577 25.3095C211.536 25.3095 206.339 20.8179 205.156 14.9971C204.253 10.7334 201.905 6.91241 198.509 4.17997C195.114 1.44752 190.879 -0.0288274 186.521 0.000426531H156.564C147.507 0.000426531 139.707 6.27958 137.928 14.9971C136.746 20.8179 131.548 25.3095 125.508 25.3095C112.858 25.8595 104.589 27.4179 97.9801 31.7445C93.5484 34.65 89.7326 38.4003 86.751 42.7812C79.876 52.8645 79.876 66.9078 79.876 95.0035C79.876 123.099 79.876 137.133 86.7418 147.226C89.7118 151.589 93.5251 155.338 97.9801 158.263C108.256 165 122.565 165 151.174 165ZM171.542 57.5028C150.45 57.5028 133.345 74.2869 133.345 94.9944C133.345 115.702 150.459 132.513 171.542 132.513C192.626 132.513 209.74 115.72 209.74 95.0127C209.74 74.3052 192.626 57.5028 171.542 57.5028ZM171.542 72.4994C158.892 72.4994 148.626 82.5736 148.626 95.0035C148.626 107.424 158.892 117.498 171.542 117.498C184.192 117.498 194.459 107.424 194.459 95.0035C194.459 82.5827 184.192 72.4994 171.542 72.4994ZM214.827 65.0011C214.827 60.8578 218.246 57.5028 222.472 57.5028H232.647C236.864 57.5028 240.292 60.8578 240.292 65.0011C240.273 67.0076 239.458 68.9245 238.026 70.3304C236.594 71.7364 234.663 72.5165 232.656 72.4994H222.472C221.478 72.5091 220.491 72.3228 219.569 71.9512C218.647 71.5796 217.807 71.03 217.097 70.3337C216.387 69.6374 215.821 68.8081 215.432 67.8931C215.042 66.9781 214.837 65.9954 214.827 65.0011Z" fill="url(#paint0_linear_186_171)"/>
</g>
<g filter="url(#filter1_d_186_171)">
<path d="M108.073 73.7117C102.643 73.7117 97.4351 75.8688 93.5954 79.7085C89.7557 83.5482 87.5985 88.756 87.5985 94.1861C87.5985 99.6163 89.7557 104.824 93.5954 108.664C97.4351 112.503 102.643 114.661 108.073 114.661C113.503 114.661 118.711 112.503 122.551 108.664C126.39 104.824 128.547 99.6163 128.547 94.1861C128.547 88.756 126.39 83.5482 122.551 79.7085C118.711 75.8688 113.503 73.7117 108.073 73.7117ZM108.073 128.31C99.0227 128.31 90.3431 124.715 83.9436 118.315C77.5441 111.916 73.9489 103.236 73.9489 94.1861C73.9489 85.1359 77.5441 76.4563 83.9436 70.0568C90.3431 63.6572 99.0227 60.062 108.073 60.062C117.123 60.062 125.803 63.6572 132.202 70.0568C138.602 76.4563 142.197 85.1359 142.197 94.1861C142.197 103.236 138.602 111.916 132.202 118.315C125.803 124.715 117.123 128.31 108.073 128.31ZM108.073 43C73.9489 43 44.8069 64.2252 33 94.1861C44.8069 124.147 73.9489 145.372 108.073 145.372C142.197 145.372 171.339 124.147 183.146 94.1861C171.339 64.2252 142.197 43 108.073 43Z" fill="url(#paint1_linear_186_171)"/>
</g>
<defs>
<filter id="filter0_d_186_171" x="73.2093" y="0" width="196.666" height="178.333" filterUnits="userSpaceOnUse" color-interpolation-filters="sRGB">
<feFlood flood-opacity="0" result="BackgroundImageFix"/>
<feColorMatrix in="SourceAlpha" type="matrix" values="0 0 0 0 0 0 0 0 0 0 0 0 0 0 0 0 0 0 127 0" result="hardAlpha"/>
<feOffset dy="6.66667"/>
<feGaussianBlur stdDeviation="3.33333"/>
<feComposite in2="hardAlpha" operator="out"/>
<feColorMatrix type="matrix" values="0 0 0 0 0 0 0 0 0 0 0 0 0 0 0 0 0 0 0.25 0"/>
<feBlend mode="normal" in2="BackgroundImageFix" result="effect1_dropShadow_186_171"/>
<feBlend mode="normal" in="SourceGraphic" in2="effect1_dropShadow_186_171" result="shape"/>
</filter>
<filter id="filter1_d_186_171" x="24.2959" y="43" width="167.554" height="119.781" filterUnits="userSpaceOnUse" color-interpolation-filters="sRGB">
<feFlood flood-opacity="0" result="BackgroundImageFix"/>
<feColorMatrix in="SourceAlpha" type="matrix" values="0 0 0 0 0 0 0 0 0 0 0 0 0 0 0 0 0 0 127 0" result="hardAlpha"/>
<feOffset dy="8.70411"/>
<feGaussianBlur stdDeviation="4.35206"/>
<feComposite in2="hardAlpha" operator="out"/>
<feColorMatrix type="matrix" values="0 0 0 0 0 0 0 0 0 0 0 0 0 0 0 0 0 0 0.25 0"/>
<feBlend mode="normal" in2="BackgroundImageFix" result="effect1_dropShadow_186_171"/>
<feBlend mode="normal" in="SourceGraphic" in2="effect1_dropShadow_186_171" result="shape"/>
</filter>
<linearGradient id="paint0_linear_186_171" x1="171.542" y1="0" x2="171.542" y2="165" gradientUnits="userSpaceOnUse">
<stop stop-color="#8A6C95"/>
<stop offset="1" stop-color="#2A4682"/>
</linearGradient>
<linearGradient id="paint1_linear_186_171" x1="108.073" y1="43" x2="108.073" y2="145.372" gradientUnits="userSpaceOnUse">
<stop stop-color="#8A6C95"/>
<stop offset="1" stop-color="#6CB8C9"/>
</linearGradient>
</defs>
</svg>
